<svg width="691.74" height="152.13" version="1.1" viewBox="0 0 183.02 40.251" xmlns="http://www.w3.org/2000/svg">
 <g transform="translate(-48.434 -97.556)">
  <g id="logo-reagan">
   <g fill="#feca2e" stroke-width=".26458" aria-label="Reagan">
    <path d="m51.38 113.34q0 2.4384-0.03387 4.3688 0 1.8965-0.13547 2.9803-0.1016 0.74507-0.3048 1.2531-0.16933 0.508-0.67733 0.6096-0.23707 0.0677-0.508 0.1016t-0.508 0.0339q-0.27093 0-0.27093 0.2032 0 0.27094 0.54187 0.27094 0.37253 0 0.9144-0.0339 0.54187 0 1.0499-0.0339 0.508 0 0.84667-0.0339 0.37253 0 0.37253 0 0.06773 0 0.44027 0 0.4064 0.0339 0.98213 0.0339 0.6096 0.0339 1.3208 0.0339 0.7112 0.0339 1.4224 0.0339 0.54187 0 0.54187-0.27094 0-0.2032-0.27093-0.2032-0.23707 0-0.7112-0.0339-0.44027-0.0339-0.8128-0.1016-0.77893-0.1016-1.016-0.6096t-0.3048-1.2531q-0.13547-1.0837-0.16933-2.9803 0-1.9304 0-4.3688v-0.8128q0-0.27093 0.23707-0.27093l4.1656 0.0677q0.23707 0 0.44027 0.2032 0.23707 0.33867 0.64347 0.9144 0.44027 0.54187 0.9144 1.2192 0.508 0.67733 1.0499 1.4224 0.54187 0.74506 1.0837 1.4563 1.4563 1.9304 2.4723 3.1835 1.016 1.2192 2.0997 1.7949 0.64347 0.37253 1.4224 0.508t2.2013 0.13547h2.4045q0.47413 0 0.64347-0.0677 0.16933-0.0339 0.16933-0.2032 0-0.2032-0.3048-0.2032-0.16933 0-0.508 0-0.33867-0.0339-0.8128-0.1016-0.64347-0.1016-1.6933-0.54186-1.0499-0.44027-2.4384-1.8965-1.4901-1.5917-3.2173-3.7931-1.7272-2.2013-3.8269-4.8768 2.2691-2.0997 3.1835-3.9963 0.9144-1.9304 0.9144-3.8269 0-0.88054-0.27093-1.6256-0.23707-0.74507-0.6096-1.3208-0.33867-0.57574-0.74507-0.98214-0.4064-0.44027-0.7112-0.67733-1.3547-0.98214-2.9803-1.2192-1.5917-0.27093-3.2173-0.27093-0.4064 0-1.016 0.03387-0.6096 0-1.2531 0.03387-0.6096 0-1.1176 0.03387-0.47413 0-0.6096 0-0.06773 0-0.47413 0-0.37253-0.03387-0.94827-0.03387-0.54187-0.03387-1.1853-0.03387-0.64347-0.03387-1.2192-0.03387-0.54187 0-0.54187 0.27093 0 0.2032 0.27093 0.2032 0.23707 0 0.57573 0.03387 0.37253 0 0.57573 0.06773 0.84667 0.16933 1.1176 0.6096 0.27093 0.44027 0.33867 1.3208 0.03387 0.4064 0.03387 0.88053 0.03387 0.44027 0.03387 1.2192 0 0.74507 0 1.9981t0 3.2173zm2.7093-14.089q0-0.3048 0.27093-0.4064 0.27093-0.06773 0.88053-0.13547 0.6096-0.06773 1.3885-0.06773 2.7432 0 4.3011 1.7949 1.5579 1.7949 1.5579 4.9784 0 1.9304-0.6096 3.2851-0.57573 1.3208-1.4563 1.9304-0.57573 0.4064-1.2531 0.54187-0.67733 0.1016-1.2869 0.1016-1.1176 0-2.1675-0.13547-1.016-0.16933-1.3885-0.4064-0.23707-0.13547-0.23707-0.4064z"/>
    <path d="m85.662 114.79q0 2.0997-0.03387 3.7253 0 1.6256-0.13547 2.5061-0.1016 0.64346-0.23707 1.0499-0.1016 0.4064-0.54187 0.47414-0.2032 0.0339-0.47413 0.1016-0.23707 0.0339-0.44027 0.0339-0.23707 0-0.23707 0.23707t0.47413 0.23707q0.37253 0 0.8128-0.0339 0.47413 0 0.9144-0.0339 0.47413-0.0339 0.84667-0.0339t0.44027 0q0.33867 0 0.9144 0 0.6096 0 1.5579 0.0677 0.9144 0.0339 2.2013 0.0677 1.2869 0.0339 2.9803 0.0339 0.44027 0 0.7112-0.0339 0.3048 0 0.47413-0.0677 0.16933-0.0677 0.27093-0.2032 0.13547-0.16933 0.2032-0.44027 0.06773-0.23706 0.13547-0.64346 0.06773-0.44027 0.13547-0.88054 0.06773-0.47413 0.1016-0.8128 0.03387-0.37253 0.03387-0.44027 0-0.16933-0.03387-0.3048-0.03387-0.13546-0.16933-0.13546-0.2032 0-0.3048 0.44026-0.13547 0.88054-0.47413 1.3208-0.3048 0.4064-0.88053 0.67733-0.57573 0.23707-1.4901 0.27093-0.9144 0.0339-1.4901 0.0339-1.1176 0-1.7949-0.0677-0.67733-0.1016-1.0837-0.33867-0.37253-0.27093-0.508-0.7112-0.13547-0.47414-0.16933-1.1853 0-0.2032 0-0.84666 0-0.67734 0-1.4563 0-0.77894 0-1.4901 0-0.74506 0-1.1176v-2.4045q0-0.2032 0.2032-0.2032 0.2032 0 0.8128 0 0.6096 0 1.3208 0.0339 0.7112 0 1.3885 0.0339t0.98214 0.0677q0.88053 0.1016 1.1515 0.33867 0.3048 0.23707 0.37253 0.54187 0.1016 0.27093 0.1016 0.508 0.03387 0.23707 0.03387 0.44027 0 0.27093 0.2032 0.27093 0.16933 0 0.2032-0.16933 0.06773-0.2032 0.06773-0.37254 0-0.16933 0.03387-0.77893 0.03387-0.64347 0.1016-1.0837 0.06773-0.7112 0.13547-1.0837 0.1016-0.37253 0.1016-0.508 0-0.23707-0.16933-0.23707-0.06773 0-0.44027 0.37254-0.23707 0.23706-0.57573 0.3048-0.33867 0.0339-0.88053 0.1016-0.27093 0.0339-1.016 0.0677-0.74507 0-1.5917 0-0.84667 0-1.5579 0-0.67733 0-0.8128 0-0.16933 0-0.16933-0.3048v-7.8232q0-0.3048 0.16933-0.3048 0.13547 0 0.74507 0 0.6096 0 1.3208 0.0339 0.74507 0 1.3885 0.0339 0.64347 0 0.84667 0.0339 0.6096 0.0677 0.98213 0.16933 0.37253 0.0677 0.6096 0.16934 0.23707 0.1016 0.33867 0.23707 0.13547 0.13546 0.2032 0.3048 0.1016 0.27093 0.13547 0.57573 0.03387 0.27093 0.03387 0.44027 0 0.37253 0.23707 0.37253 0.1016 0 0.16933-0.1016 0.06773-0.1016 0.1016-0.2032 0.03387-0.13547 0.03387-0.4064 0.03387-0.27093 0.06773-0.57573 0.03387-0.3048 0.03387-0.54187 0.03387-0.27094 0.03387-0.37254 0.06773-0.6096 0.13547-0.88053 0.1016-0.3048 0.1016-0.47413 0-0.27094-0.13547-0.27094-0.1016 0-0.2032 0.0677-0.1016 0.0339-0.2032 0.0677-0.16933 0.0339-0.54187 0.1016-0.37253 0.0339-0.8128 0.0677-0.16933 0-0.74507 0-0.57573 0-1.3547 0-0.77894 0-1.6595 0-0.84667 0-1.5917 0-0.7112 0-1.2192 0-0.508 0-0.54187 0-0.06773 0-0.44027 0-0.33867-0.0339-0.84667-0.0339-0.508 0-1.0837 0-0.57573-0.0339-1.0837-0.0339-0.47413 0-0.47413 0.23707 0 0.23706 0.23707 0.23706 0.2032 0 0.508 0.0339 0.33867 0 0.508 0.0339 0.74507 0.1016 0.94827 0.47413 0.2032 0.37253 0.27093 1.1176 0.03387 0.33867 0.03387 0.74507 0.03387 0.37253 0.03387 1.0499 0 0.64346 0 1.6933t0 2.7093z"/>
    <path d="m111.38 119.98q-0.44027 1.0837-0.98213 1.7949-0.508 0.7112-1.524 0.84667-0.16934 0.0339-0.44027 0.0677-0.27094 0-0.44027 0-0.27093 0-0.27093 0.23707t0.57573 0.23707q0.44027 0 0.9144-0.0339 0.508 0 0.9144-0.0339 0.44027 0 0.74507-0.0339 0.33867 0 0.44027 0 0.13546 0 0.44026 0 0.33867 0.0339 0.74507 0.0339 0.4064 0.0339 0.8128 0.0339 0.4064 0.0339 0.67734 0.0339 0.44026 0 0.44026-0.23707t-0.3048-0.23707h-0.27093q-0.37253 0-0.7112-0.16933-0.3048-0.16933-0.3048-0.6096 0-0.77893 0.44027-1.9304l1.6933-4.6059q0.1016-0.23707 0.3048-0.23707h6.8749q0.16933 0 0.27094 0.16933l2.6755 6.604q0.16934 0.37253 0 0.54187-0.13546 0.16933-0.27093 0.23706-0.1016 0.0677-0.16933 0.1016-0.0339 0-0.0339 0.1016 0 0.13547 0.3048 0.16934 0.3048 0 0.74507 0.0339 0.77893 0.0339 1.524 0.0339 0.77893 0.0339 1.4224 0.0339 0.67733 0 1.1176 0 0.47414 0 0.64347 0 0.27093 0 0.47413-0.0677 0.2032-0.0339 0.2032-0.16933 0-0.13547-0.13546-0.16933-0.1016-0.0677-0.23707-0.0677-0.23707 0-0.54187-0.0339t-0.64346-0.13547q-0.23707-0.0677-0.50801-0.2032-0.27093-0.13547-0.6096-0.47413-0.3048-0.33867-0.67733-0.9144-0.33867-0.57574-0.74507-1.5579-0.47413-1.0837-1.1515-2.7093-0.64346-1.6595-1.3885-3.4883t-1.524-3.6915q-0.74507-1.8965-1.3885-3.4544-0.64346-1.5917-1.1176-2.7093-0.44026-1.1176-0.57573-1.4224-0.23707-0.47413-0.37253-0.74507-0.1016-0.3048-0.33867-0.3048-0.16933 0-0.3048 0.2032t-0.4064 0.9144zm4.3011-6.0283q-0.16933 0-0.1016-0.2032l2.7771-7.891q0.23707-0.64346 0.508 0l2.9464 7.891q0.0339 0.2032-0.1016 0.2032z"/>
    <path d="m158.53 120.79q0 0.4064-0.16933 0.57573-0.16934 0.13547-0.44027 0.3048-0.57573 0.33867-1.524 0.44027-0.9144 0.1016-1.6933 0.1016-2.0659 0-3.9624-0.67733-1.8627-0.67734-3.6576-2.3368-0.40641-0.37253-0.94827-1.0837-0.54187-0.7112-1.0499-1.7272-0.47413-1.016-0.8128-2.3029-0.33867-1.3208-0.33867-2.8448 0-2.54 0.8128-4.4027 0.84667-1.8627 2.1336-2.8448 1.6933-1.2869 3.2851-1.5579 1.5917-0.3048 2.9464-0.3048 2.9125 0 4.6059 0.7112 1.6933 0.7112 2.2691 1.524 0.37253 0.508 0.508 1.0837 0.13546 0.54187 0.16933 0.8128 0 0.44027 0.2032 0.44027 0.16934 0 0.23707-0.1016 0.1016-0.13547 0.1016-0.508 0-1.0837 0.0339-1.7949t0.0339-1.1515q0.0339-0.47414 0.0677-0.7112 0.0339-0.23707 0.0339-0.4064 0-0.27094-0.37253-0.27094-0.57574 0-1.2531-0.1016t-1.1515-0.2032q-0.2032-0.0339-0.67733-0.1016-0.47413-0.1016-1.1176-0.16933-0.6096-0.1016-1.3547-0.13547-0.7112-0.0677-1.4224-0.0677-1.7272 0-3.8269 0.3048-2.0659 0.3048-4.0979 1.524-0.98213 0.6096-1.8965 1.524-0.91441 0.88054-1.5917 2.0659-0.67733 1.1853-1.0837 2.6755-0.4064 1.4563-0.4064 3.1835 0 1.3547 0.3048 2.6077 0.3048 1.2192 0.77893 2.2691 0.508 1.0499 1.1515 1.8965t1.3208 1.4224q1.2531 1.0499 2.6077 1.6595 1.3885 0.6096 2.7093 0.94827 1.3208 0.3048 2.4723 0.37253 1.1853 0.1016 2.032 0.1016 0.64347 0 1.4563-0.0677t1.6595-0.23707q0.84667-0.13547 1.6595-0.37253 0.84666-0.23707 1.5579-0.6096 0.27093-0.13547 0.33866-0.33867 0.0677-0.23707 0.0677-1.2192v-3.2173q0-0.9144 0-1.5917 0-0.7112 0.0339-1.3885 0.0677-0.77893 0.27094-1.1176 0.23706-0.37253 0.84666-0.47413 0.27094-0.0677 0.4064-0.0677 0.16934 0 0.33867 0 0.23707 0 0.23707-0.23706 0-0.23707-0.47414-0.23707-0.33866 0-0.8128 0.0339-0.47413 0-0.94826 0-0.44027 0-0.77894 0.0339-0.33867 0-0.37253 0-0.0677 0-0.44027 0-0.37253-0.0339-0.88053-0.0339t-1.1176 0q-0.57574-0.0339-1.0837-0.0339-0.47413 0-0.47413 0.23707 0 0.23706 0.23706 0.23706 0.2032 0 0.508 0.0339 0.33867 0 0.508 0.0339 0.44027 0.1016 0.71121 0.23706 0.27093 0.13547 0.37253 0.44027 0.13547 0.3048 0.16933 0.84667 0.0339 0.508 0.0339 1.3885z"/>
    <path d="m177.26 119.98q-0.44027 1.0837-0.98214 1.7949-0.508 0.7112-1.524 0.84667-0.16933 0.0339-0.44026 0.0677-0.27094 0-0.44027 0-0.27093 0-0.27093 0.23707t0.57573 0.23707q0.44027 0 0.9144-0.0339 0.508 0 0.9144-0.0339 0.44027 0 0.74507-0.0339 0.33867 0 0.44027 0 0.13546 0 0.44026 0 0.33867 0.0339 0.74507 0.0339 0.4064 0.0339 0.8128 0.0339 0.4064 0.0339 0.67733 0.0339 0.44027 0 0.44027-0.23707t-0.3048-0.23707h-0.27093q-0.37254 0-0.7112-0.16933-0.3048-0.16933-0.3048-0.6096 0-0.77893 0.44026-1.9304l1.6933-4.6059q0.1016-0.23707 0.3048-0.23707h6.8749q0.16933 0 0.27093 0.16933l2.6755 6.604q0.16934 0.37253 0 0.54187-0.13546 0.16933-0.27093 0.23706-0.1016 0.0677-0.16933 0.1016-0.0339 0-0.0339 0.1016 0 0.13547 0.3048 0.16934 0.3048 0 0.74507 0.0339 0.77893 0.0339 1.524 0.0339 0.77893 0.0339 1.4224 0.0339 0.67733 0 1.1176 0 0.47413 0 0.64347 0 0.27093 0 0.47413-0.0677 0.2032-0.0339 0.2032-0.16933 0-0.13547-0.13547-0.16933-0.1016-0.0677-0.23706-0.0677-0.23707 0-0.54187-0.0339t-0.64347-0.13547q-0.23706-0.0677-0.508-0.2032-0.27093-0.13547-0.6096-0.47413-0.3048-0.33867-0.67733-0.9144-0.33867-0.57574-0.74507-1.5579-0.47413-1.0837-1.1515-2.7093-0.64346-1.6595-1.3885-3.4883t-1.524-3.6915q-0.74507-1.8965-1.3885-3.4544-0.64347-1.5917-1.1176-2.7093-0.44027-1.1176-0.57573-1.4224-0.23707-0.47413-0.37254-0.74507-0.1016-0.3048-0.33866-0.3048-0.16934 0-0.3048 0.2032-0.13547 0.2032-0.4064 0.9144zm4.3011-6.0283q-0.16933 0-0.1016-0.2032l2.7771-7.891q0.23707-0.64346 0.508 0l2.9464 7.891q0.0339 0.2032-0.1016 0.2032z"/>
    <path d="m211.31 105.65q0.33867 0.37254 1.0837 1.1853 0.77893 0.8128 1.8288 1.9304 1.0499 1.0837 2.2691 2.4045 1.2531 1.2869 2.54 2.6416 1.1853 1.2192 2.5061 2.5739 1.3208 1.3208 2.4384 2.4723 1.1176 1.1176 1.8965 1.8965 0.8128 0.74507 0.9144 0.84667 0.6096 0.57573 0.98213 0.9144 0.4064 0.33867 0.64347 0.54187 0.27093 0.16933 0.4064 0.23706 0.13547 0.0677 0.23707 0.0677 0.0677 0 0.1016-0.0677 0.0677-0.0339 0.0677-0.23706 0.0339-0.23707 0.0339-0.64347 0.0339-0.4064 0.0339-1.1176l0.0677-16.866q0-0.64346 0.0339-1.0837t0.13547-0.7112q0.1016-0.3048 0.3048-0.47414 0.2032-0.16933 0.57573-0.23706 0.27094-0.0677 0.44027-0.0677t0.27093 0q0.16934 0 0.23707-0.1016 0.1016-0.1016 0.1016-0.16933 0-0.2032-0.54187-0.2032-0.9144 0-1.5917 0.0339-0.67734 0.0339-0.94827 0.0339t-1.1853-0.0339-1.9304-0.0339q-0.57573 0-0.57573 0.2032 0 0.0677 0.0339 0.16933 0.0339 0.1016 0.2032 0.1016 0.16933 0 0.6096 0.0339t0.84667 0.1016q0.67733 0.13547 0.88053 0.7112 0.2032 0.57574 0.23707 1.9643l0.3048 14.427q-0.33867-0.33866-1.0837-1.1176-0.7112-0.77893-1.6933-1.7949-0.94827-1.016-2.0659-2.1675-1.0837-1.1853-2.2013-2.3368-1.7272-1.7611-3.3528-3.4544-1.6256-1.6933-2.9125-3.048-1.2869-1.3547-2.1336-2.2352-0.84666-0.9144-1.016-1.0837-0.23707-0.23706-0.57573-0.54186-0.3048-0.33867-0.57574-0.33867-0.16933 0-0.3048 0.3048-0.1016 0.27093-0.1016 1.1515v16.493q0 0.98213-0.0339 1.6595-0.0339 0.64347-0.13547 1.0499-0.0677 0.4064-0.23707 0.6096-0.16933 0.2032-0.44026 0.27093-0.33867 0.1016-0.7112 0.13547-0.33867 0.0339-0.50801 0.0339-0.23706 0-0.23706 0.23707t0.47413 0.23707q1.016 0 1.8288-0.0677 0.84667-0.0339 1.0499-0.0339t1.016 0.0339q0.84667 0.0677 2.1336 0.0677 0.54187 0 0.54187-0.23707t-0.23707-0.23707q-0.2032 0-0.64346-0.0339-0.44027-0.0339-0.84667-0.13547-0.3048-0.0677-0.508-0.23707-0.2032-0.2032-0.33867-0.57573-0.13546-0.4064-0.2032-0.98213-0.0677-0.60961-0.1016-1.4901z"/>
   </g>
  </g>
  <g id="logo-land-surveying" stroke-width=".26458" aria-label="Land Surveying">
   <g fill="#ccc">
    <path d="m52.435 131.71q0-0.7366 0-1.2065t0-0.7493q0-0.2921 0-0.4572 0.0127-0.1778 0.0254-0.3302 0.0254-0.3302 0.1143-0.4953 0.1016-0.1778 0.381-0.2286 0.1143-0.0254 0.2286-0.0254 0.127-0.0127 0.1905-0.0127 0.1016 0 0.1016-0.0762 0-0.1016-0.2032-0.1016-0.1397 0-0.3683 0.0127-0.2159 0-0.4318 0.0127-0.2159 0-0.381 0.0127-0.1651 0-0.1905 0t-0.1778 0q-0.1397-0.0127-0.3556-0.0127-0.2032-0.0127-0.4445-0.0127-0.2413-0.0127-0.4572-0.0127-0.2032 0-0.2032 0.1016 0 0.0762 0.1016 0.0762 0.0889 0 0.2159 0.0127 0.1397 0 0.2159 0.0254 0.3175 0.0635 0.4191 0.2286t0.127 0.4953q0.0127 0.1524 0.0127 0.3302 0.0127 0.1651 0.0127 0.4572 0 0.2794 0 0.7493t0 1.2065v2.2352q0 0.9144-0.0127 1.6383 0 0.7112-0.0508 1.1176-0.0381 0.2794-0.1143 0.4699-0.0635 0.1905-0.254 0.2286-0.0889 0.0254-0.1905 0.0381t-0.1905 0.0127q-0.1016 0-0.1016 0.0762 0 0.1016 0.2032 0.1016 0.1397 0 0.3302-0.0127 0.2032 0 0.3937-0.0127 0.1905 0 0.3302-0.0127 0.1524 0 0.1905 0 0.2794 0 0.5842 0 0.3048 0.0127 0.7112 0.0381 0.4064 0.0127 0.9144 0.0254t1.1938 0.0127q0.254 0 0.3937-0.0127 0.1524-0.0127 0.2286-0.0508t0.1016-0.1016q0.0381-0.0635 0.0762-0.1778 0.0381-0.1397 0.0635-0.3302 0.0381-0.2032 0.0635-0.3937 0.0381-0.1905 0.0508-0.3429t0.0127-0.2032q0-0.1905-0.0762-0.1905-0.0889 0-0.1143 0.1651-0.0254 0.1778-0.1143 0.3937t-0.2159 0.3683q-0.2286 0.2794-0.635 0.3302-0.3937 0.0508-0.9017 0.0508-0.3683 0-0.635-0.0127-0.254-0.0254-0.4318-0.0508-0.1651-0.0381-0.2794-0.0889-0.1016-0.0635-0.1778-0.1397-0.1778-0.1651-0.2286-0.8382t-0.0508-2.0701z"/>
    <path d="m57.807 136.44q-0.1651 0.4064-0.3683 0.6731-0.1905 0.2667-0.5715 0.3175-0.0635 0.0127-0.1651 0.0254-0.1016 0-0.1651 0-0.1016 0-0.1016 0.0889t0.2159 0.0889q0.1651 0 0.3429-0.0127 0.1905 0 0.3429-0.0127 0.1651 0 0.2794-0.0127 0.127 0 0.1651 0 0.0508 0 0.1651 0 0.127 0.0127 0.2794 0.0127 0.1524 0.0127 0.3048 0.0127 0.1524 0.0127 0.254 0.0127 0.1651 0 0.1651-0.0889t-0.1143-0.0889h-0.1016q-0.1397 0-0.2667-0.0635-0.1143-0.0635-0.1143-0.2286 0-0.2921 0.1651-0.7239l0.635-1.7272q0.0381-0.0889 0.1143-0.0889h2.5781q0.0635 0 0.1016 0.0635l1.0033 2.4765q0.0635 0.1397 0 0.2032-0.0508 0.0635-0.1016 0.0889-0.0381 0.0254-0.0635 0.0381-0.0127 0-0.0127 0.0381 0 0.0508 0.1143 0.0635 0.1143 0 0.2794 0.0127 0.2921 0.0127 0.5715 0.0127 0.2921 0.0127 0.5334 0.0127 0.254 0 0.4191 0 0.1778 0 0.2413 0 0.1016 0 0.1778-0.0254 0.0762-0.0127 0.0762-0.0635t-0.0508-0.0635q-0.0381-0.0254-0.0889-0.0254-0.0889 0-0.2032-0.0127t-0.2413-0.0508q-0.0889-0.0254-0.1905-0.0762t-0.2286-0.1778q-0.1143-0.127-0.254-0.3429-0.127-0.2159-0.2794-0.5842-0.1778-0.4064-0.4318-1.016-0.2413-0.6223-0.5207-1.3081t-0.5715-1.3843q-0.2794-0.7112-0.5207-1.2954-0.2413-0.5969-0.4191-1.016-0.1651-0.4191-0.2159-0.5334-0.0889-0.1778-0.1397-0.2794-0.0381-0.1143-0.127-0.1143-0.0635 0-0.1143 0.0762t-0.1524 0.3429zm1.6129-2.2606q-0.0635 0-0.0381-0.0762l1.0414-2.9591q0.0889-0.2413 0.1905 0l1.1049 2.9591q0.0127 0.0762-0.0381 0.0762z"/>
    <path d="m67.002 131.06q0.127 0.1397 0.4064 0.4445 0.2921 0.3048 0.6858 0.7239 0.3937 0.4064 0.8509 0.9017 0.4699 0.4826 0.9525 0.9906 0.4445 0.4572 0.9398 0.9652 0.4953 0.4953 0.9144 0.9271 0.4191 0.4191 0.7112 0.7112 0.3048 0.2794 0.3429 0.3175 0.2286 0.2159 0.3683 0.3429 0.1524 0.127 0.2413 0.2032 0.1016 0.0635 0.1524 0.0889t0.0889 0.0254q0.0254 0 0.0381-0.0254 0.0254-0.0127 0.0254-0.0889 0.0127-0.0889 0.0127-0.2413 0.0127-0.1524 0.0127-0.4191l0.0254-6.3246q0-0.2413 0.0127-0.4064t0.0508-0.2667q0.0381-0.1143 0.1143-0.1778t0.2159-0.0889q0.1016-0.0254 0.1651-0.0254t0.1016 0q0.0635 0 0.0889-0.0381 0.0381-0.0381 0.0381-0.0635 0-0.0762-0.2032-0.0762-0.3429 0-0.5969 0.0127t-0.3556 0.0127-0.4445-0.0127-0.7239-0.0127q-0.2159 0-0.2159 0.0762 0 0.0254 0.0127 0.0635t0.0762 0.0381 0.2286 0.0127 0.3175 0.0381q0.254 0.0508 0.3302 0.2667t0.0889 0.7366l0.1143 5.4102q-0.127-0.127-0.4064-0.4191-0.2667-0.2921-0.635-0.6731-0.3556-0.381-0.7747-0.8128-0.4064-0.4445-0.8255-0.8763-0.6477-0.6604-1.2573-1.2954t-1.0922-1.143-0.8001-0.8382q-0.3175-0.3429-0.381-0.4064-0.0889-0.0889-0.2159-0.2032-0.1143-0.127-0.2159-0.127-0.0635 0-0.1143 0.1143-0.0381 0.1016-0.0381 0.4318v6.1849q0 0.3683-0.0127 0.6223-0.0127 0.2413-0.0508 0.3937-0.0254 0.1524-0.0889 0.2286t-0.1651 0.1016q-0.127 0.0381-0.2667 0.0508-0.127 0.0127-0.1905 0.0127-0.0889 0-0.0889 0.0889t0.1778 0.0889q0.381 0 0.6858-0.0254 0.3175-0.0127 0.3937-0.0127t0.381 0.0127q0.3175 0.0254 0.8001 0.0254 0.2032 0 0.2032-0.0889t-0.0889-0.0889q-0.0762 0-0.2413-0.0127t-0.3175-0.0508q-0.1143-0.0254-0.1905-0.0889-0.0762-0.0762-0.127-0.2159-0.0508-0.1524-0.0762-0.3683-0.0254-0.2286-0.0381-0.5588z"/>
    <path d="m77.238 134.49q0 0.7874-0.0127 1.397 0 0.6096-0.0508 0.9398-0.0381 0.2413-0.0889 0.3937-0.0381 0.1397-0.2032 0.1778-0.0762 0.0254-0.1778 0.0381-0.0889 0.0127-0.1651 0.0127-0.0889 0-0.0889 0.0889t0.1778 0.0889q0.1397 0 0.3175-0.0127 0.1778 0 0.3556-0.0127 0.1778 0 0.3048-0.0127 0.127 0 0.1524 0 0.0381 0 0.2921 0.0127 0.254 0.0254 0.6223 0.0508t0.7747 0.0381q0.4191 0.0254 0.7874 0.0254 0.7112 0 1.2573-0.127 0.5588-0.127 0.9652-0.3048 0.4191-0.1905 0.6985-0.4064 0.2921-0.2159 0.4699-0.4064 0.2286-0.2413 0.4445-0.5461 0.2286-0.3175 0.3937-0.6985t0.2667-0.8255q0.1016-0.4572 0.1016-0.9652 0-0.9652-0.3429-1.6383-0.3302-0.6858-0.7493-1.1049-0.4953-0.4953-1.1049-0.7493-0.5969-0.2667-1.2192-0.3683-0.6096-0.1016-1.1811-0.1016-0.5588-0.0127-0.9779-0.0127-0.254 0-0.4953 0.0127-0.2413 0-0.4572 0-0.2032 0-0.3556 0.0127-0.1397 0-0.1905 0-0.0254 0-0.1651 0-0.127-0.0127-0.3175-0.0127t-0.4064 0q-0.2159-0.0127-0.4064-0.0127-0.1778 0-0.1778 0.0889t0.0889 0.0889q0.0762 0 0.1905 0.0127 0.127 0 0.1905 0.0127 0.2794 0.0381 0.3556 0.1778t0.1016 0.4191q0.0127 0.127 0.0127 0.2794 0.0127 0.1397 0.0127 0.3937 0 0.2413 0 0.635t0 1.016zm1.016-4.3434q0-0.1651 0.1397-0.2159 0.0762-0.0254 0.2921-0.0508t0.381-0.0254q0.4953 0 0.9779 0.0381t0.9398 0.1651 0.8763 0.3683q0.4318 0.2413 0.8255 0.635 0.1651 0.1778 0.3556 0.4318 0.1905 0.2413 0.3429 0.5842 0.1524 0.3302 0.254 0.762 0.1016 0.4191 0.1016 0.9271 0 0.3683-0.0635 0.7493-0.0508 0.3683-0.1651 0.7112-0.1016 0.3302-0.2667 0.6223-0.1651 0.2794-0.381 0.4826-0.508 0.4826-1.1811 0.7366-0.6604 0.2413-1.4351 0.2413-0.4953 0-0.8255-0.0381t-0.5461-0.1016q-0.2032-0.0635-0.3175-0.1397t-0.1651-0.1524q-0.0635-0.0889-0.0889-0.3302t-0.0381-0.4445q0-0.0762-0.0127-0.2921 0-0.2159 0-0.5207 0-0.3175 0-0.7112t0-0.8255z"/>
    <path d="m92.821 137.81q0.5207 0 1.016-0.127 0.4953-0.1143 0.9017-0.4064 0.3302-0.2286 0.5334-0.508 0.2159-0.2921 0.3302-0.5842 0.127-0.2921 0.1651-0.5588 0.0508-0.2667 0.0508-0.4572 0-0.381-0.0762-0.7239-0.0762-0.3556-0.2921-0.6985-0.2032-0.3556-0.5715-0.7366-0.3556-0.381-0.9144-0.8255l-0.3556-0.2794q-0.4572-0.3556-0.762-0.635-0.2921-0.2794-0.4699-0.5207t-0.254-0.4699q-0.0635-0.2413-0.0635-0.508 0-0.6985 0.4445-1.0795 0.4572-0.3937 1.1176-0.3937 0.4318 0 0.7239 0.0889 0.2921 0.0762 0.4699 0.1905 0.1905 0.1143 0.2794 0.2286t0.1143 0.1651q0.0635 0.1016 0.1016 0.3175 0.0508 0.2032 0.0635 0.3175 0.0127 0.0762 0.0254 0.127 0.0127 0.0381 0.0762 0.0381 0.0889 0 0.0889-0.2921 0-0.6477 0.0254-0.9652 0.0254-0.3302 0.0254-0.381 0-0.0889-0.127-0.0889-0.0762 0-0.1778-0.0127-0.0889-0.0127-0.2667-0.0508-0.2413-0.0635-0.5334-0.0889-0.2794-0.0381-0.6477-0.0381-0.6096 0-1.0922 0.1651t-0.8255 0.4699-0.5334 0.7239q-0.1778 0.4191-0.1778 0.9271 0 0.3302 0.0635 0.6477 0.0762 0.3048 0.254 0.6477 0.1905 0.3302 0.508 0.6858t0.8255 0.7747l0.5715 0.4699q0.4064 0.3429 0.6858 0.6223 0.2794 0.2667 0.4445 0.5334 0.1778 0.254 0.254 0.5334 0.0762 0.2667 0.0762 0.5969 0 0.3048-0.1143 0.6096t-0.3429 0.5461q-0.2159 0.2286-0.5588 0.381t-0.8001 0.1524q-0.3175 0-0.6223-0.0635-0.3048-0.0762-0.5715-0.2286-0.254-0.1524-0.4318-0.3937-0.1778-0.254-0.254-0.6096-0.0254-0.1397-0.0381-0.254 0-0.127 0-0.2159 0-0.1397-0.0889-0.1397t-0.1016 0.2032q-0.0127 0.1524-0.0381 0.508t-0.0254 0.8382q0 0.254 0.0254 0.3429 0.0254 0.0762 0.1651 0.1397 0.3937 0.1905 0.8255 0.2667t0.8763 0.0762z"/>
    <path d="m98.307 134.17q0 0.5969 0.0762 1.0414t0.2032 0.7747q0.1397 0.3302 0.3175 0.5842 0.1778 0.2413 0.381 0.4318 0.2921 0.2794 0.635 0.4318 0.3556 0.1524 0.6858 0.2286t0.5969 0.0889 0.4064 0.0127q0.2413 0 0.5207-0.0254 0.2921-0.0254 0.5842-0.1143 0.3048-0.0762 0.6096-0.2286 0.3175-0.1524 0.6223-0.4191 0.3302-0.2794 0.5334-0.6604t0.3175-0.8001q0.1143-0.4318 0.1524-0.8763 0.0381-0.4572 0.0381-0.9017v-1.1557q0-0.6223 0-1.016t0-0.635q0-0.254 0-0.3937 0-0.1524 0.0127-0.2794 0.0254-0.2667 0.0889-0.4064 0.0762-0.1397 0.3048-0.1905 0.1016-0.0254 0.1524-0.0254 0.0635 0 0.127 0 0.0889 0 0.0889-0.0889t-0.1778-0.0889q-0.254 0-0.5715 0.0127-0.3048 0.0127-0.3683 0.0127-0.0254 0-0.1524 0-0.1143-0.0127-0.2921-0.0127-0.1651 0-0.3683 0-0.2032-0.0127-0.3937-0.0127-0.1778 0-0.1778 0.0889t0.0889 0.0889q0.0762 0 0.1905 0.0127 0.127 0 0.1905 0.0127 0.2794 0.0381 0.3556 0.1905t0.0889 0.4064q0 0.127 0 0.2794 0.0127 0.1397 0.0127 0.3937 0.0127 0.2413 0.0127 0.635t0 1.016v1.3589q0 0.8382-0.127 1.4986-0.1143 0.6477-0.508 1.1176-0.2921 0.3429-0.7493 0.5588-0.4572 0.2032-0.9779 0.2032-0.4826 0-0.8763-0.1016-0.381-0.1143-0.7874-0.4826-0.1778-0.1651-0.3302-0.3683-0.1524-0.2159-0.2667-0.5207-0.1016-0.3175-0.1651-0.7366-0.0635-0.4318-0.0635-1.016v-1.5113q0-0.6223 0-1.016t0-0.635q0-0.254 0-0.3937 0.0127-0.1524 0.0254-0.2794 0.0254-0.2667 0.0889-0.4064 0.0762-0.1524 0.2921-0.1905 0.1016-0.0254 0.1524-0.0254 0.0635 0 0.127 0 0.1016 0 0.1016-0.0889t-0.1905-0.0889q-0.127 0-0.3048 0.0127-0.1778 0-0.3556 0-0.1651 0-0.3048 0.0127-0.127 0-0.1651 0t-0.1778 0q-0.127-0.0127-0.3175-0.0127-0.1778 0-0.3937 0-0.2032-0.0127-0.3937-0.0127-0.1778 0-0.1778 0.0889t0.0889 0.0889q0.0762 0 0.1905 0.0127 0.127 0 0.1905 0.0127 0.2794 0.0381 0.3556 0.1905t0.1016 0.4064q0.0127 0.127 0.0127 0.2794 0.0127 0.1397 0.0127 0.3937 0 0.2413 0 0.635t0 1.016z"/>
    <path d="m108.18 134.49q0 0.7874-0.0127 1.397 0 0.6096-0.0508 0.9398-0.0381 0.2413-0.0889 0.3937-0.0381 0.1397-0.2032 0.1778-0.0762 0.0254-0.1778 0.0381-0.0889 0.0127-0.1651 0.0127-0.0889 0-0.0889 0.0889t0.1778 0.0889q0.127 0 0.3175-0.0127 0.1905 0 0.3556-0.0127 0.1778 0 0.3048-0.0127 0.127 0 0.127 0 0.0127 0 0.1397 0 0.1397 0.0127 0.3302 0.0127 0.2032 0.0127 0.4318 0.0127 0.2413 0.0127 0.4699 0.0127 0.1778 0 0.1778-0.0889t-0.0889-0.0889q-0.0762 0-0.2286-0.0127t-0.2667-0.0381q-0.254-0.0381-0.3429-0.1778-0.0762-0.1524-0.1016-0.3937-0.0381-0.3302-0.0508-0.9271 0-0.6096 0-1.397v-0.254q0-0.0889 0.0762-0.0889l1.4224 0.0254q0.0889 0 0.1524 0.0635 0.0889 0.1143 0.2159 0.2921 0.1397 0.1778 0.2921 0.3937 0.1651 0.2032 0.3429 0.4445 0.1778 0.2286 0.3556 0.4445 0.4826 0.6096 0.8128 1.0033 0.3429 0.3937 0.7112 0.5842 0.2159 0.1143 0.4572 0.1651 0.254 0.0508 0.7366 0.0508h0.6985q0.1524 0 0.2032-0.0254 0.0635-0.0127 0.0635-0.0635 0-0.0889-0.1016-0.0889-0.0508 0-0.1397 0-0.0889-0.0127-0.254-0.0381-0.2159-0.0254-0.508-0.1524-0.2921-0.1397-0.7366-0.5969-0.4826-0.508-1.0668-1.2192t-1.27-1.5748q0.7747-0.6604 1.0668-1.2573 0.3048-0.6096 0.3048-1.2065 0-0.2794-0.0889-0.508-0.0762-0.2413-0.2032-0.4318-0.1143-0.1905-0.254-0.3175-0.127-0.1397-0.2286-0.2159-0.4445-0.3048-1.0033-0.381-0.5461-0.0889-1.0795-0.0889-0.127 0-0.3556 0.0127-0.2159 0-0.4318 0t-0.3937 0.0127q-0.1778 0-0.2159 0-0.0254 0-0.1651 0-0.1397-0.0127-0.3302-0.0127t-0.4191 0q-0.2159-0.0127-0.4064-0.0127-0.1778 0-0.1778 0.0889t0.0889 0.0889q0.0762 0 0.1905 0.0127 0.127 0 0.1905 0.0127 0.2794 0.0381 0.3556 0.1778t0.1016 0.4191q0.0127 0.127 0.0127 0.2794 0.0127 0.1397 0.0127 0.3937 0 0.2413 0 0.635t0 1.016zm0.9652-4.4577q0-0.0762 0.0889-0.127 0.0889-0.0254 0.3175-0.0381 0.2286-0.0254 0.4826-0.0254 0.9017 0 1.4097 0.5588 0.5207 0.5461 0.5207 1.5621 0 0.6223-0.1905 1.0414t-0.4826 0.6096q-0.2032 0.1397-0.4191 0.1651t-0.4191 0.0254q-0.1905 0-0.381-0.0127t-0.3683-0.0381q-0.1651-0.0254-0.2921-0.0508t-0.1905-0.0635q-0.0762-0.0508-0.0762-0.1397z"/>
    <path d="m116.76 130.78q-0.127-0.3302-0.2159-0.5588-0.0889-0.2413-0.0889-0.3429 0-0.0635 0.0127-0.1016 0.0254-0.0508 0.1143-0.0889 0.0762-0.0254 0.1905-0.0381t0.2159-0.0127q0.1143 0 0.1143-0.1016 0-0.0762-0.3048-0.0762-0.3302 0-0.6477 0.0127-0.3048 0.0127-0.3937 0.0127-0.0508 0-0.1905 0-0.1397-0.0127-0.3175-0.0127t-0.3937 0q-0.2032-0.0127-0.4064-0.0127-0.2921 0-0.2921 0.0762 0 0.0254 0.0254 0.0635 0.0127 0.0381 0.0635 0.0381t0.1778 0.0127q0.1143 0 0.254 0.0254 0.1397 0.0381 0.2413 0.0889 0.1016 0.0381 0.1905 0.127 0.0889 0.0762 0.1651 0.2286 0.0762 0.1397 0.1778 0.3683l2.7432 6.6167q0.1651 0.3937 0.2413 0.5207 0.0762 0.1397 0.1778 0.1397 0.0889 0 0.1651-0.1651 0.0889-0.1651 0.3175-0.6477 0.1905-0.4064 0.5461-1.2446 0.3683-0.8382 0.889-2.032 0.2159-0.4953 0.4191-0.9652 0.2032-0.4826 0.3683-0.8763t0.2794-0.6731q0.127-0.2921 0.1778-0.4064 0.1143-0.2794 0.2032-0.4445 0.0889-0.1778 0.1651-0.2794 0.0762-0.1143 0.127-0.1651 0.0635-0.0635 0.127-0.1016 0.1524-0.1016 0.3048-0.1143 0.1651-0.0127 0.2286-0.0127 0.127 0 0.127-0.1016 0-0.0762-0.1778-0.0762-0.254 0-0.5461 0.0127-0.2794 0.0127-0.3302 0.0127-0.1016 0-0.4318-0.0127t-0.6604-0.0127q-0.254 0-0.254 0.0889t0.127 0.0889q0.1016 0 0.1905 0.0127 0.0889 0 0.1905 0.0254 0.0889 0.0254 0.1143 0.1016 0.0381 0.0635 0.0381 0.127t-0.0381 0.1778q-0.0254 0.1016-0.0635 0.2286-0.0635 0.1905-0.2159 0.6096-0.1524 0.4064-0.3556 0.9525-0.2032 0.5334-0.4572 1.143-0.2413 0.6096-0.4826 1.2065-0.2413 0.5842-0.4572 1.1176-0.2159 0.5207-0.381 0.8763z"/>
    <path d="m124.71 134.49q0 0.7874-0.0127 1.397 0 0.6096-0.0508 0.9398-0.0381 0.2413-0.0889 0.3937-0.0381 0.1524-0.2032 0.1778-0.0762 0.0127-0.1778 0.0381-0.0889 0.0127-0.1651 0.0127-0.0889 0-0.0889 0.0889t0.1778 0.0889q0.1397 0 0.3048-0.0127 0.1778 0 0.3429-0.0127 0.1778-0.0127 0.3175-0.0127t0.1651 0q0.127 0 0.3429 0 0.2286 0 0.5842 0.0254 0.3429 0.0127 0.8255 0.0254t1.1176 0.0127q0.1651 0 0.2667-0.0127 0.1143 0 0.1778-0.0254t0.1016-0.0762q0.0508-0.0635 0.0762-0.1651 0.0254-0.0889 0.0508-0.2413 0.0254-0.1651 0.0508-0.3302 0.0254-0.1778 0.0381-0.3048 0.0127-0.1397 0.0127-0.1651 0-0.0635-0.0127-0.1143t-0.0635-0.0508q-0.0762 0-0.1143 0.1651-0.0508 0.3302-0.1778 0.4953-0.1143 0.1524-0.3302 0.254-0.2159 0.0889-0.5588 0.1016t-0.5588 0.0127q-0.4191 0-0.6731-0.0254-0.254-0.0381-0.4064-0.127-0.1397-0.1016-0.1905-0.2667-0.0508-0.1778-0.0635-0.4445 0-0.0762 0-0.3175 0-0.254 0-0.5461t0-0.5588q0-0.2794 0-0.4191v-0.9017q0-0.0762 0.0762-0.0762t0.3048 0 0.4953 0.0127q0.2667 0 0.5207 0.0127t0.3683 0.0254q0.3302 0.0381 0.4318 0.127 0.1143 0.0889 0.1397 0.2032 0.0381 0.1016 0.0381 0.1905 0.0127 0.0889 0.0127 0.1651 0 0.1016 0.0762 0.1016 0.0635 0 0.0762-0.0635 0.0254-0.0762 0.0254-0.1397t0.0127-0.2921q0.0127-0.2413 0.0381-0.4064 0.0254-0.2667 0.0508-0.4064 0.0381-0.1397 0.0381-0.1905 0-0.0889-0.0635-0.0889-0.0254 0-0.1651 0.1397-0.0889 0.0889-0.2159 0.1143-0.127 0.0127-0.3302 0.0381-0.1016 0.0127-0.381 0.0254-0.2794 0-0.5969 0t-0.5842 0q-0.254 0-0.3048 0-0.0635 0-0.0635-0.1143v-2.9337q0-0.1143 0.0635-0.1143 0.0508 0 0.2794 0t0.4953 0.0127q0.2794 0 0.5207 0.0127 0.2413 0 0.3175 0.0127 0.2286 0.0254 0.3683 0.0635 0.1397 0.0254 0.2286 0.0635t0.127 0.0889q0.0508 0.0508 0.0762 0.1143 0.0381 0.1016 0.0508 0.2159 0.0127 0.1016 0.0127 0.1651 0 0.1397 0.0889 0.1397 0.0381 0 0.0635-0.0381t0.0381-0.0762q0.0127-0.0508 0.0127-0.1524 0.0127-0.1016 0.0254-0.2159t0.0127-0.2032q0.0127-0.1016 0.0127-0.1397 0.0254-0.2286 0.0508-0.3302 0.0381-0.1143 0.0381-0.1778 0-0.1016-0.0508-0.1016-0.0381 0-0.0762 0.0254-0.0381 0.0127-0.0762 0.0254-0.0635 0.0127-0.2032 0.0381-0.1397 0.0127-0.3048 0.0254-0.0635 0-0.2794 0t-0.508 0-0.6223 0q-0.3175 0-0.5969 0-0.2667 0-0.4572 0t-0.2032 0q-0.0254 0-0.1651 0-0.127-0.0127-0.3175-0.0127t-0.4064 0q-0.2159-0.0127-0.4064-0.0127-0.1778 0-0.1778 0.0889t0.0889 0.0889q0.0762 0 0.1905 0.0127 0.127 0 0.1905 0.0127 0.2794 0.0381 0.3556 0.1778t0.1016 0.4191q0.0127 0.127 0.0127 0.2794 0.0127 0.1397 0.0127 0.3937 0 0.2413 0 0.635t0 1.016z"/>
    <path d="m133.27 135.75q0 0.1397 0 0.4445t-0.0254 0.635q-0.0254 0.2413-0.0889 0.3937-0.0635 0.1397-0.2413 0.1778-0.0762 0.0254-0.1651 0.0381t-0.1651 0.0127q-0.0889 0-0.0889 0.0889t0.1778 0.0889q0.127 0 0.3048-0.0127 0.1778 0 0.3429-0.0127 0.1778 0 0.2921-0.0127 0.127 0 0.1524 0t0.1524 0q0.1397 0.0127 0.3429 0.0127 0.2032 0.0127 0.4445 0.0127 0.2413 0.0127 0.4699 0.0127 0.1778 0 0.1778-0.0889t-0.0889-0.0889q-0.0762 0-0.2413-0.0127-0.1524-0.0127-0.2667-0.0381-0.254-0.0381-0.3302-0.1778-0.0762-0.1524-0.1016-0.3937-0.0254-0.3302-0.0381-0.635 0-0.3048 0-0.4445v-0.9271q0-0.2667 0-0.5207 0-0.2667 0.1397-0.5588 0.0508-0.1143 0.2032-0.381 0.1651-0.2667 0.3683-0.6096 0.2159-0.3556 0.4572-0.7366t0.4572-0.7239q0.2286-0.3429 0.4064-0.5969 0.1905-0.2667 0.2794-0.381 0.1778-0.2159 0.2794-0.3175 0.1143-0.1143 0.2794-0.2159 0.1397-0.0762 0.2794-0.1016 0.1397-0.0381 0.2413-0.0381 0.0635 0 0.1016-0.0381t0.0381-0.0762q0-0.0635-0.1397-0.0635-0.0762 0-0.254 0.0127-0.1651 0-0.3429 0t-0.3302 0.0127q-0.1397 0-0.1651 0-0.0635 0-0.3175-0.0127-0.2413-0.0127-0.4572-0.0127-0.1778 0-0.1778 0.0635 0 0.0889 0.1651 0.127 0.1778 0.0508 0.1778 0.2794 0 0.1016-0.0508 0.2413-0.0381 0.1397-0.1397 0.3175-0.0508 0.0889-0.1905 0.3302-0.1397 0.2286-0.3302 0.5461-0.1778 0.3048-0.3937 0.6477-0.2032 0.3429-0.3937 0.6604-0.1778 0.3175-0.3302 0.5715-0.1397 0.254-0.1905 0.3683l-2.032-3.3655q-0.0635-0.1016-0.1143-0.2032-0.0381-0.1016-0.0381-0.2159t0.1397-0.1778q0.1778-0.0635 0.1778-0.1143 0-0.0381-0.0254-0.0508-0.0254-0.0254-0.127-0.0254-0.3302 0-0.6223 0.0127-0.2794 0.0127-0.3429 0.0127-0.0254 0-0.1651 0-0.1397-0.0127-0.3302-0.0127-0.1778 0-0.3556 0-0.1778-0.0127-0.254-0.0127-0.1397 0-0.1397 0.0762 0 0.1016 0.1143 0.1016 0.0635 0 0.2032 0.0381t0.2667 0.1143q0.1524 0.1016 0.3429 0.2921t0.3937 0.4953q0.0889 0.1397 0.2667 0.4191t0.3937 0.6223q0.2159 0.3302 0.4318 0.6858 0.2286 0.3429 0.4191 0.6477t0.3175 0.5207q0.127 0.2032 0.1524 0.2413 0.127 0.2286 0.1778 0.4572 0.0635 0.2159 0.0635 0.6477z"/>
    <path d="m140.33 132.59q0-0.6223 0-1.016t0-0.635q0-0.254 0-0.3937 0.0127-0.1524 0.0127-0.2794 0.0254-0.2921 0.0889-0.4191 0.0762-0.127 0.3048-0.1778 0.1016-0.0254 0.1524-0.0254 0.0635 0 0.127 0 0.0889 0 0.0889-0.0889t-0.1778-0.0889q-0.127 0-0.3175 0.0127-0.1778 0-0.3556 0-0.1651 0-0.3048 0.0127-0.127 0-0.1397 0-0.0254 0-0.1524 0-0.127-0.0127-0.3048-0.0127-0.1651 0-0.3556 0-0.1778-0.0127-0.3175-0.0127-0.1778 0-0.1778 0.0889t0.0889 0.0889q0.0635 0 0.1524 0.0127 0.0889 0 0.1905 0.0254 0.1778 0.0381 0.254 0.1778 0.0762 0.127 0.1016 0.4064 0.0127 0.127 0.0127 0.2794 0.0127 0.1397 0.0127 0.3937 0 0.2413 0 0.635t0 1.016v1.905q0 0.7874-0.0127 1.397t-0.0508 0.9398q-0.0254 0.2413-0.0762 0.3937-0.0508 0.1397-0.2159 0.1778-0.0762 0.0254-0.1778 0.0381-0.0889 0.0127-0.1651 0.0127-0.0889 0-0.0889 0.0889t0.1778 0.0889q0.127 0 0.3048-0.0127 0.1778 0 0.3429-0.0127 0.1778 0 0.3048-0.0127 0.127 0 0.1524 0 0.0127 0 0.1397 0 0.1397 0.0127 0.3429 0.0127 0.2032 0.0127 0.4445 0.0127 0.2413 0.0127 0.4699 0.0127 0.1778 0 0.1778-0.0889t-0.0889-0.0889q-0.0762 0-0.2286-0.0127t-0.2794-0.0381q-0.254-0.0381-0.3175-0.1778-0.0635-0.1524-0.0889-0.3937-0.0381-0.3302-0.0508-0.9398 0-0.6096 0-1.397z"/>
    <path d="m144.6 131.06q0.127 0.1397 0.4064 0.4445 0.2921 0.3048 0.6858 0.7239 0.3937 0.4064 0.8509 0.9017 0.4699 0.4826 0.9525 0.9906 0.4445 0.4572 0.9398 0.9652 0.4953 0.4953 0.9144 0.9271 0.4191 0.4191 0.7112 0.7112 0.3048 0.2794 0.3429 0.3175 0.2286 0.2159 0.3683 0.3429 0.1524 0.127 0.2413 0.2032 0.1016 0.0635 0.1524 0.0889t0.0889 0.0254q0.0254 0 0.0381-0.0254 0.0254-0.0127 0.0254-0.0889 0.0127-0.0889 0.0127-0.2413 0.0127-0.1524 0.0127-0.4191l0.0254-6.3246q0-0.2413 0.0127-0.4064t0.0508-0.2667q0.0381-0.1143 0.1143-0.1778t0.2159-0.0889q0.1016-0.0254 0.1651-0.0254t0.1016 0q0.0635 0 0.0889-0.0381 0.0381-0.0381 0.0381-0.0635 0-0.0762-0.2032-0.0762-0.3429 0-0.5969 0.0127t-0.3556 0.0127-0.4445-0.0127-0.7239-0.0127q-0.2159 0-0.2159 0.0762 0 0.0254 0.0127 0.0635t0.0762 0.0381 0.2286 0.0127 0.3175 0.0381q0.254 0.0508 0.3302 0.2667t0.0889 0.7366l0.1143 5.4102q-0.127-0.127-0.4064-0.4191-0.2667-0.2921-0.635-0.6731-0.3556-0.381-0.7747-0.8128-0.4064-0.4445-0.8255-0.8763-0.6477-0.6604-1.2573-1.2954t-1.0922-1.143-0.8001-0.8382q-0.3175-0.3429-0.381-0.4064-0.0889-0.0889-0.2159-0.2032-0.1143-0.127-0.2159-0.127-0.0635 0-0.1143 0.1143-0.0381 0.1016-0.0381 0.4318v6.1849q0 0.3683-0.0127 0.6223-0.0127 0.2413-0.0508 0.3937-0.0254 0.1524-0.0889 0.2286t-0.1651 0.1016q-0.127 0.0381-0.2667 0.0508-0.127 0.0127-0.1905 0.0127-0.0889 0-0.0889 0.0889t0.1778 0.0889q0.381 0 0.6858-0.0254 0.3175-0.0127 0.3937-0.0127t0.381 0.0127q0.3175 0.0254 0.8001 0.0254 0.2032 0 0.2032-0.0889t-0.0889-0.0889q-0.0762 0-0.2413-0.0127t-0.3175-0.0508q-0.1143-0.0254-0.1905-0.0889-0.0762-0.0762-0.127-0.2159-0.0508-0.1524-0.0762-0.3683-0.0254-0.2286-0.0381-0.5588z"/>
    <path d="m160.09 136.74q0 0.1524-0.0635 0.2159-0.0635 0.0508-0.1651 0.1143-0.2159 0.127-0.5715 0.1651-0.3429 0.0381-0.635 0.0381-0.7747 0-1.4859-0.254-0.6985-0.254-1.3716-0.8763-0.1524-0.1397-0.3556-0.4064t-0.3937-0.6477q-0.1778-0.381-0.3048-0.8636-0.127-0.4953-0.127-1.0668 0-0.9525 0.3048-1.651 0.3175-0.6985 0.8001-1.0668 0.635-0.4826 1.2319-0.5842 0.5969-0.1143 1.1049-0.1143 1.0922 0 1.7272 0.2667t0.8509 0.5715q0.1397 0.1905 0.1905 0.4064 0.0508 0.2032 0.0635 0.3048 0 0.1651 0.0762 0.1651 0.0635 0 0.0889-0.0381 0.0381-0.0508 0.0381-0.1905 0-0.4064 0.0127-0.6731t0.0127-0.4318q0.0127-0.1778 0.0254-0.2667t0.0127-0.1524q0-0.1016-0.1397-0.1016-0.2159 0-0.4699-0.0381t-0.4318-0.0762q-0.0762-0.0127-0.254-0.0381-0.1778-0.0381-0.4191-0.0635-0.2286-0.0381-0.508-0.0508-0.2667-0.0254-0.5334-0.0254-0.6477 0-1.4351 0.1143-0.7747 0.1143-1.5367 0.5715-0.3683 0.2286-0.7112 0.5715-0.3429 0.3302-0.5969 0.7747t-0.4064 1.0033q-0.1524 0.5461-0.1524 1.1938 0 0.508 0.1143 0.9779 0.1143 0.4572 0.2921 0.8509 0.1905 0.3937 0.4318 0.7112t0.4953 0.5334q0.4699 0.3937 0.9779 0.6223 0.5207 0.2286 1.016 0.3556 0.4953 0.1143 0.9271 0.1397 0.4445 0.0381 0.762 0.0381 0.2413 0 0.5461-0.0254t0.6223-0.0889q0.3175-0.0508 0.6223-0.1397 0.3175-0.0889 0.5842-0.2286 0.1016-0.0508 0.127-0.127 0.0254-0.0889 0.0254-0.4572v-1.2065q0-0.3429 0-0.5969 0-0.2667 0.0127-0.5207 0.0254-0.2921 0.1016-0.4191 0.0889-0.1397 0.3175-0.1778 0.1016-0.0254 0.1524-0.0254 0.0635 0 0.127 0 0.0889 0 0.0889-0.0889t-0.1778-0.0889q-0.127 0-0.3048 0.0127-0.1778 0-0.3556 0-0.1651 0-0.2921 0.0127-0.127 0-0.1397 0-0.0254 0-0.1651 0-0.1397-0.0127-0.3302-0.0127t-0.4191 0q-0.2159-0.0127-0.4064-0.0127-0.1778 0-0.1778 0.0889t0.0889 0.0889q0.0762 0 0.1905 0.0127 0.127 0 0.1905 0.0127 0.1651 0.0381 0.2667 0.0889t0.1397 0.1651q0.0508 0.1143 0.0635 0.3175 0.0127 0.1905 0.0127 0.5207z"/>
   </g>
  </g>
 </g>
</svg>
